<svg width="48" height="48" viewBox="0 0 48 48" fill="none" xmlns="http://www.w3.org/2000/svg"><g clip-path="url(#clip0)" fill="#156963"><path d="M24 48c13.234 0 24-10.766 24-24a23.845 23.845 0 00-1.847-9.246.949.949 0 10-1.752.732 21.945 21.945 0 011.7 8.514c0 12.187-9.914 22.102-22.101 22.102S1.898 36.187 1.898 24C1.898 11.813 11.813 1.898 24 1.898a22.035 22.035 0 017.275 1.226.949.949 0 10.625-1.793A23.938 23.938 0 0024 0C10.766 0 0 10.766 0 24s10.766 24 24 24z"/><path d="M33.41 6.173a.95.95 0 00-1.343 1.342l4.417 4.417a.949.949 0 001.326.015l7.787-7.437a.95.95 0 10-1.311-1.373L37.17 9.934l-3.76-3.761zM24 14.82a4.064 4.064 0 014.059 4.058.949.949 0 101.898 0 5.966 5.966 0 00-5.008-5.88v-1.88a.949.949 0 10-1.898 0v1.88A5.957 5.957 0 0024 24.834a4.058 4.058 0 01.047 8.116H24l-.047.002a4.063 4.063 0 01-4.012-4.058.949.949 0 10-1.898 0 5.966 5.966 0 005.008 5.881v2.107a.949.949 0 101.898 0v-2.107A5.956 5.956 0 0024 22.937a4.06 4.06 0 110-8.117z"/></g><defs><clipPath id="clip0"><path fill="#fff" d="M0 0h48v48H0z"/></clipPath></defs></svg>