<svg width="48" height="48" viewBox="0 0 48 48" fill="none" xmlns="http://www.w3.org/2000/svg"><g clip-path="url(#clip0)" fill="#156963"><path d="M13 38H9a1 1 0 010-2h4a1 1 0 010 2zm32.5 0H43a1 1 0 010-2h1.67l1.348-7.184C46 25.14 42.86 22 39 22h-6.566l-3.182 14H35a1 1 0 010 2h-7a1 1 0 01-.976-1.22l3.636-16a1 1 0 01.976-.78H39c4.962 0 9 4.038 9 9l-1.518 8.184A.997.997 0 0145.5 38z"/><path d="M39 42c-2.756 0-5-2.242-5-5s2.244-5 5-5 5 2.242 5 5-2.244 5-5 5zm0-8c-1.654 0-3 1.346-3 3s1.346 3 3 3 3-1.346 3-3-1.346-3-3-3zm-22 8c-2.756 0-5-2.242-5-5s2.244-5 5-5 5 2.242 5 5-2.244 5-5 5zm0-8c-1.654 0-3 1.346-3 3s1.346 3 3 3 3-1.346 3-3-1.346-3-3-3zm-4-14H5a1 1 0 010-2h8a1 1 0 010 2zm0 6H3a1 1 0 010-2h10a1 1 0 010 2zm0 6H1a1 1 0 010-2h12a1 1 0 010 2z"/><path d="M28 38h-7a1 1 0 010-2h6.202l4.544-20H9a1 1 0 010-2h24a1 1 0 01.976 1.22l-5 22A1 1 0 0128 38z"/></g><defs><clipPath id="clip0"><path fill="#fff" d="M0 0h48v48H0z"/></clipPath></defs></svg>