<svg width="48" height="48" viewBox="0 0 48 48" fill="none" xmlns="http://www.w3.org/2000/svg"><path d="M24 0C12.369 0 2.906 9.463 2.906 21.094V32.53a4.224 4.224 0 004.219 4.219h1.648a4.225 4.225 0 003.977 2.813 4.224 4.224 0 004.219-4.22V23.907a4.224 4.224 0 00-4.219-4.218A4.225 4.225 0 008.773 22.5H7.125c-.493 0-.966.086-1.406.242v-1.648c0-10.08 8.2-18.282 18.281-18.282 10.08 0 18.281 8.202 18.281 18.282v1.648a4.198 4.198 0 00-1.406-.242h-1.648a4.225 4.225 0 00-3.977-2.813 4.224 4.224 0 00-4.219 4.22v11.437a4.224 4.224 0 005.444 4.037 4.226 4.226 0 01-4.038 2.994h-4.46A4.225 4.225 0 0024 39.562a4.224 4.224 0 00-4.219 4.22A4.224 4.224 0 0024 48a4.225 4.225 0 003.977-2.813h4.46a7.04 7.04 0 007.032-7.03V36.75h1.406a4.224 4.224 0 004.219-4.219V21.094C45.094 9.463 35.63 0 24 0zM11.344 23.906c0-.775.63-1.406 1.406-1.406.775 0 1.406.63 1.406 1.406v11.438c0 .775-.63 1.406-1.406 1.406-.775 0-1.406-.63-1.406-1.406V23.906zm-4.219 1.407h1.406v8.625H7.125a1.408 1.408 0 01-1.406-1.407V26.72c0-.776.63-1.407 1.406-1.407zM24 45.188a1.408 1.408 0 010-2.813 1.407 1.407 0 010 2.813zm12.656-9.844c0 .775-.63 1.406-1.406 1.406-.775 0-1.406-.63-1.406-1.406V23.906c0-.775.63-1.406 1.406-1.406.775 0 1.406.63 1.406 1.406v11.438zm5.625-2.813c0 .776-.63 1.407-1.406 1.407h-1.406v-8.626h1.406c.775 0 1.406.631 1.406 1.407v5.812z" fill="#156963"/></svg>