<?xml version="1.0" encoding="utf-8"?>
<!-- Generator: Adobe Illustrator 23.0.5, SVG Export Plug-In . SVG Version: 6.00 Build 0)  -->
<svg version="1.1" id="Слой_1" xmlns="http://www.w3.org/2000/svg" xmlns:xlink="http://www.w3.org/1999/xlink" x="0px" y="0px"
	 viewBox="0 0 20 20" enable-background="new 0 0 20 20" xml:space="preserve">
<path fill="#333333" d="M18.2,16.8l-3-3c1-1.3,1.6-2.9,1.6-4.7c0-4.2-3.4-7.7-7.7-7.7c-4.2,0-7.7,3.4-7.7,7.7c0,4.2,3.4,7.7,7.7,7.7
	c1.8,0,3.4-0.6,4.7-1.6l3,3c0.2,0.2,0.5,0.3,0.7,0.3s0.5-0.1,0.7-0.3C18.6,17.8,18.6,17.2,18.2,16.8z M3.5,9.2C3.5,6,6,3.5,9.2,3.5
	s5.7,2.5,5.7,5.7c0,1.6-0.6,3-1.6,4c0,0,0,0,0,0s0,0,0,0c-1,1-2.4,1.6-4,1.6C6,14.8,3.5,12.3,3.5,9.2z"/>
</svg>
