<svg version="1.1" id="Слой_1" xmlns="http://www.w3.org/2000/svg" xmlns:xlink="http://www.w3.org/1999/xlink" x="0" y="0" viewBox="0 0 20 20" xml:space="preserve"><defs><path id="SVGID_1_" d="M0 0h20v20H0z"/></defs><clipPath id="SVGID_2_"><use xlink:href="#SVGID_1_" overflow="visible"/></clipPath><g clip-path="url(#SVGID_2_)" fill="#333"><path d="M7.7 18.8c-1 0-1.8-.8-1.8-1.8s.8-1.8 1.8-1.8 1.7.8 1.7 1.8-.8 1.8-1.7 1.8zm0-2c-.1 0-.2.1-.2.2 0 .2.4.2.4 0 0-.1-.1-.2-.2-.2zm8.6 2c-1 0-1.8-.8-1.8-1.8s.8-1.8 1.8-1.8S18 16 18 17s-.8 1.8-1.7 1.8zm0-2c-.1 0-.2.1-.2.2 0 .2.4.2.4 0 0-.1-.1-.2-.2-.2zm-8.2-2.7c-.6 0-1.1-.2-1.6-.6-.5-.4-.8-.9-.9-1.5L4.3 5.5v-.1l-.6-3H1.4c-.6 0-1-.4-1-1s.4-1 1-1h3.1c.5 0 .9.3 1 .8l.6 3.1h12.5c.3 0 .6.1.8.4.2.2.3.5.2.8L18.3 12c-.1.6-.4 1.1-.9 1.5-.5.4-1.1.6-1.7.6H8.1c.1 0 .1 0 0 0zM6.5 6.3l1.1 5.4c0 .1.1.2.2.3.1.1.2.1.4.1h7.6c.2 0 .3 0 .4-.1.1-.1.2-.2.2-.3l1-5.4H6.5z"/></g></svg>