<?xml version="1.0" encoding="utf-8"?>
<!-- Generator: Adobe Illustrator 23.0.5, SVG Export Plug-In . SVG Version: 6.00 Build 0)  -->
<svg version="1.1" id="Слой_1" xmlns="http://www.w3.org/2000/svg" xmlns:xlink="http://www.w3.org/1999/xlink" x="0px" y="0px"
	 viewBox="0 0 36 36" enable-background="new 0 0 36 36" xml:space="preserve">
<path fill="#156963" d="M15.5,1.4c1.5-0.9,3.5-0.9,5,0l10.6,6.1c1.5,0.9,2.5,2.5,2.5,4.3v12.2c0,1.8-1,3.4-2.5,4.3l-10.6,6.1
	c-1.5,0.9-3.5,0.9-5,0L4.9,28.4c-1.5-0.9-2.5-2.5-2.5-4.3V11.9c0-1.8,1-3.4,2.5-4.3L15.5,1.4z"/>
<path fill="#FFFFFF" d="M12.8,28.2c-0.8,0-1.5-0.2-2-0.7c-0.5-0.5-0.7-1.1-0.7-2V9.9c0-0.8,0.2-1.4,0.6-1.8c0.4-0.4,1-0.6,1.8-0.6
	h7.5c2.3,0,4.1,0.6,5.3,1.8c1.3,1.2,1.9,2.8,1.9,4.8c0,2-0.6,3.7-1.9,4.8c-1.3,1.2-3,1.8-5.3,1.8h-4.6v5c0,0.8-0.2,1.5-0.7,2
	C14.3,28,13.6,28.2,12.8,28.2z M19.4,16.5c1,0,1.7-0.2,2.2-0.6c0.5-0.4,0.7-1,0.7-1.9c0-1.7-1-2.5-2.9-2.5h-3.9v5.1H19.4z"/>
</svg>
