<svg version="1.1" id="Слой_1" xmlns="http://www.w3.org/2000/svg" x="0" y="0" viewBox="0 0 36 36" xml:space="preserve"><path fill="#156963" d="M15.5 1.4c1.5-.9 3.5-.9 5 0l10.6 6.1c1.5.9 2.5 2.5 2.5 4.3V24c0 1.8-1 3.4-2.5 4.3l-10.6 6.1c-1.5.9-3.5.9-5 0l-10.6-6c-1.5-.9-2.5-2.5-2.5-4.3V11.9c0-1.8 1-3.4 2.5-4.3l10.6-6.2z"/><path fill="#FFF" d="M12.8 28.2c-.8 0-1.5-.2-2-.7-.5-.5-.7-1.1-.7-2V9.9c0-.8.2-1.4.6-1.8.4-.4 1-.6 1.8-.6H20c2.3 0 4.1.6 5.3 1.8 1.3 1.2 1.9 2.8 1.9 4.8s-.6 3.7-1.9 4.8c-1.3 1.2-3 1.8-5.3 1.8h-4.6v5c0 .8-.2 1.5-.7 2-.4.3-1.1.5-1.9.5zm6.6-11.7c1 0 1.7-.2 2.2-.6.5-.4.7-1 .7-1.9 0-1.7-1-2.5-2.9-2.5h-3.9v5.1h3.9z"/></svg>