<svg width="36" height="36" viewBox="0 0 36 36" fill="none" xmlns="http://www.w3.org/2000/svg"><path d="M15.5 1.443a5 5 0 015 0l10.588 6.114a5 5 0 012.5 4.33v12.226a5 5 0 01-2.5 4.33L20.5 34.557a5 5 0 01-5 0L4.912 28.443a5 5 0 01-2.5-4.33V11.887a5 5 0 012.5-4.33L15.5 1.443z" fill="#156963"/><path d="M16.3 22.072c-.337 0-.605-.096-.805-.288-.191-.2-.287-.468-.287-.804v-6.42c0-.328.088-.58.264-.756.176-.176.428-.264.755-.264H19.3c.936 0 1.665.24 2.184.72.52.472.78 1.132.78 1.98 0 .84-.264 1.5-.792 1.98-.52.48-1.244.72-2.172.72h-1.883v2.04c0 .336-.1.604-.3.804-.2.192-.473.288-.817.288zm2.7-4.788c.407 0 .707-.084.9-.252.2-.168.3-.428.3-.78 0-.696-.4-1.044-1.2-1.044h-1.584v2.076H19z" fill="#fff"/></svg>